Coordinates
version=1
nRows=10
nColumns=63
inDegrees=yes

Units are S.I. units (second, meters, Newtons, ...)
If the header above contains a line with 'inDegrees', this indicates whether rotational values are in degrees (yes) or radians (no).

endheader
time	pelvis_tilt	pelvis_list	pelvis_rotation	pelvis_tx	pelvis_ty	pelvis_tz	hip_flexion_r	hip_adduction_r	hip_rotation_r	knee_angle_r	knee_angle_r_beta	ankle_angle_r	subtalar_angle_r	mtp_angle_r	hip_flexion_l	hip_adduction_l	hip_rotation_l	knee_angle_l	knee_angle_l_beta	ankle_angle_l	subtalar_angle_l	mtp_angle_l	L5_S1_Flex_Ext	L5_S1_Lat_Bending	L5_S1_axial_rotation	L4_L5_Flex_Ext	L4_L5_Lat_Bending	L4_L5_axial_rotation	L3_L4_Flex_Ext	L3_L4_Lat_Bending	L3_L4_axial_rotation	L2_L3_Flex_Ext	L2_L3_Lat_Bending	L2_L3_axial_rotation	L1_L2_Flex_Ext	L1_L2_Lat_Bending	L1_L2_axial_rotation	L1_T12_Flex_Ext	L1_T12_Lat_Bending	L1_T12_axial_rotation	Abs_r3	Abs_r2	Abs_r1	Abs_t1	Abs_t2	neck_flexion	neck_bending	neck_rotation	arm_flex_r	arm_add_r	arm_rot_r	elbow_flex_r	pro_sup_r	wrist_flex_r	wrist_dev_r	arm_flex_l	arm_add_l	arm_rot_l	elbow_flex_l	pro_sup_l	wrist_flex_l	wrist_dev_l
      0.00000000	      8.32877339	     -1.88236235	     84.81298240	      0.12144496	      0.82111964	      0.83945608	      8.01519564	      4.47220479	     -0.77733807	     13.31980229	      0.23247441	     34.61239140	     17.19435199	      0.00000000	      2.17915594	     -3.26112129	      1.43893575	      5.31177944	      0.09270804	     26.94809435	    -13.46025790	      0.00000000	      0.14231162	      1.03210159	      1.97997406	      0.26428691	      1.37269511	      2.10372244	      0.23380376	      2.50945180	      2.10372244	      0.16264795	      2.50945180	      1.73247730	      0.13215057	      2.10466156	      1.60872893	      0.08131686	      1.59872536	      1.48498055	      1.01651768	     11.67533957	     11.01202174	      0.00000000	      0.00000000	     25.94143112	      1.29520532	     15.71869405	      8.81367749	    -22.52130104	     35.33406233	     29.79889545	     80.62905825	     -9.78986382	      0.89925641	      6.27793781	    -10.80429186	     35.14364519	     31.33941493	     86.49561881	     -9.78297825	      5.78836174
      0.01694915	      7.86712930	     -1.75268496	     85.57312458	      0.12183564	      0.82167450	      0.83893493	      7.51937642	      3.96575381	     -1.11522853	     12.69576842	      0.22158296	     34.63804942	     16.91371975	      0.00000000	      2.24181108	     -2.88169303	      3.20884995	      5.14409687	      0.08978143	     27.15264806	    -13.53846175	      0.00000000	      0.13673530	      0.95163792	      1.83813733	      0.25393113	      1.26567843	      1.95302092	      0.22464243	      2.31381244	      1.95302092	      0.15627478	      2.31381244	      1.60837017	      0.12697240	      1.94058005	      1.49348658	      0.07813055	      1.47408714	      1.37860300	      0.97668659	     10.76511848	     10.22316840	      0.00000000	      0.00000000	     25.36302266	      1.96555902	     15.30264989	      8.74735989	    -22.00089719	     35.06854253	     29.97462339	     80.52181208	    -10.30153232	      0.21890316	      6.25455085	    -11.18184362	     35.49949053	     31.19515422	     86.80368495	    -10.13211619	      5.45463657
      0.03389831	      7.61989530	     -1.63974076	     86.45341932	      0.12152252	      0.82209454	      0.83862437	      7.05529699	      3.63404662	     -1.84166018	     12.13495745	      0.21179496	     34.57875579	     16.89009456	      0.00000000	      2.35602429	     -2.63584203	      5.62123940	      5.11885586	      0.08934089	     26.88822015	    -14.98972729	      0.00000000	      0.13490773	      0.90155242	      1.68511105	      0.25053714	      1.19906471	      1.79043049	      0.22163991	      2.19203455	      1.79043049	      0.15418604	      2.19203455	      1.47447217	      0.12527532	      1.83844569	      1.36915273	      0.07708628	      1.39650469	      1.26383329	      0.96363241	     10.19854125	      9.37208215	      0.00000000	      0.00000000	     25.12393219	      2.19293369	     14.81934724	      8.75226462	    -21.68227230	     34.73554609	     30.22021718	     80.65059867	    -10.27275692	      0.02483890	      6.45265500	    -11.56957980	     36.59589727	     31.12366819	     86.98418459	    -10.68389742	      5.34194523
      0.05084746	      7.42065650	     -1.58571338	     86.62781055	      0.12204560	      0.82249388	      0.83819763	      6.69759758	      3.44026022	     -1.90353018	     11.65600746	      0.20343571	     34.42066594	     16.94105431	      0.00000000	      2.40963305	     -2.49315115	      6.07895367	      5.14731746	      0.08983764	     27.02979440	    -15.02491758	      0.00000000	      0.13752929	      0.86458016	      1.65210756	      0.25540565	      1.14989162	      1.75536429	      0.22594688	      2.10214021	      1.75536429	      0.15718223	      2.10214021	      1.44559412	      0.12770970	      1.76305187	      1.34233740	      0.07858424	      1.33923467	      1.23908067	      0.98235800	      9.78030371	      9.18852664	      0.00000000	      0.00000000	     25.07807803	      2.32221000	     14.68351094	      8.84185551	    -21.41934036	     34.62789752	     30.45441010	     80.65149400	    -10.16648361	      0.24950387	      6.42898786	    -11.91010195	     36.88092846	     31.33657080	     87.23132509	    -10.73239656	      5.27514681
      0.06779661	      7.41000928	     -1.51835485	     87.02702862	      0.12216503	      0.82291301	      0.83801749	      6.33654092	      3.42461750	     -2.21064889	     11.19255320	      0.19534690	     34.16464510	     16.91960420	      0.00000000	      2.52587893	     -2.52135582	      6.55112720	      5.32292880	      0.09290263	     27.07541148	    -15.11041153	      0.00000000	      0.13656864	      0.84837341	      1.57008853	      0.25362162	      1.12833664	      1.66821906	      0.22436862	      2.06273511	      1.66821906	      0.15608430	      2.06273511	      1.37382746	      0.12681764	      1.73000306	      1.27569693	      0.07803532	      1.31413041	      1.17756639	      0.97549614	      9.59696969	      8.73236135	      0.00000000	      0.00000000	     25.24184345	      2.39935446	     14.43330872	      9.08515714	    -21.09669533	     34.40552692	     30.51049292	     80.72285178	     -9.84603580	      0.84944192	      6.53035938	    -12.32876129	     37.53907510	     31.68668402	     87.61716864	    -10.83006728	      5.31282860
      0.08474576	      7.51744139	     -1.43786287	     87.48854890	      0.12186467	      0.82329793	      0.83786139	      5.98934162	      3.51269324	     -2.61201202	     10.77618771	      0.18807996	     33.93748943	     16.94133633	      0.00000000	      2.67961618	     -2.63492869	      6.96289468	      5.65069133	      0.09862317	     27.18735761	    -15.19895404	      0.00000000	      0.13650367	      0.85204790	      1.48891563	      0.25350096	      1.13322371	      1.58197286	      0.22426188	      2.07166927	      1.58197286	      0.15601004	      2.07166927	      1.30280118	      0.12675731	      1.73749608	      1.20974395	      0.07799820	      1.31982220	      1.11668672	      0.97503205	      9.63853627	      8.28090207	      0.00000000	      0.00000000	     25.45558745	      2.27092078	     14.30787136	      9.26672705	    -20.97783388	     34.13687245	     30.71713096	     81.02233413	     -9.27688195	      1.59418915	      6.79220562	    -12.61756256	     38.50996368	     31.93696453	     87.92075221	    -11.03471257	      5.41752486
      0.10169492	      7.69378551	     -1.38164061	     87.99332427	      0.12099993	      0.82377958	      0.83785348	      5.75397495	      3.62517965	     -3.19720104	     10.48362423	      0.18297376	     33.72140246	     17.10143639	      0.00000000	      2.85991346	     -2.77988847	      7.33771827	      5.98431791	      0.10444605	     27.14407686	    -15.33529278	      0.00000000	      0.13981310	      0.87570297	      1.46040519	      0.25964691	      1.16468495	      1.55168051	      0.22969895	      2.12918420	      1.55168051	      0.15979239	      2.12918420	      1.27785454	      0.12983045	      1.78573350	      1.18657922	      0.07988921	      1.35646390	      1.09530389	      0.99867101	      9.90612713	      8.12233554	      0.00000000	      0.00000000	     25.58341294	      1.98410730	     14.44934525	      8.86901695	    -20.93088581	     31.91606953	     31.24957178	     83.07322512	     -8.58155999	      2.38238073	      7.66218022	    -12.66043311	     41.27226459	     31.54051215	     87.85584971	    -11.97008459	      4.84756851
      0.11864407	      7.95181556	     -1.39277540	     87.98486057	      0.12121406	      0.82432517	      0.83805983	      5.63845287	      3.91111221	     -3.18702382	     10.19119620	      0.17786993	     33.45128905	     17.18075923	      0.00000000	      3.01719435	     -3.05620280	      7.20460702	      6.25510951	      0.10917226	     27.19084795	    -15.40551993	      0.00000000	      0.14022143	      0.90621996	      1.44304607	      0.26040521	      1.20527254	      1.53323645	      0.23036978	      2.20338321	      1.53323645	      0.16025907	      2.20338321	      1.26266531	      0.13020962	      1.84796374	      1.17247494	      0.08012252	      1.40373472	      1.08228456	      1.00158764	     10.25134141	      8.02578935	      0.00000000	      0.00000000	     25.64848385	      1.82558866	     14.74438407	      9.15550641	    -20.88716253	     31.93597442	     31.24482370	     83.39875210	     -8.36410992	      2.77836982	      7.91587374	    -12.68448769	     41.78668073	     31.70683998	     88.20427826	    -12.00688386	      4.59212352
      0.13559322	      8.28931582	     -1.32081020	     88.27022622	      0.12052237	      0.82512138	      0.83850682	      5.42706145	      4.24122735	     -3.24863816	      9.81793034	      0.17135521	     33.18124887	     17.03826073	      0.00000000	      3.20558547	     -3.38451101	      7.03634982	      6.67151661	      0.11643993	     27.45636996	    -14.86393673	      0.00000000	      0.12915309	      0.95999416	      1.42167544	      0.23985020	      1.27679223	      1.51053015	      0.21218561	      2.33412980	      1.51053015	      0.14760906	      2.33412980	      1.24396601	      0.11993156	      1.95762009	      1.15511129	      0.07379807	      1.48703095	      1.06625658	      0.92252759	     10.85964593	      7.90693227	      0.00000000	      0.00000000	     25.39318882	      1.62305782	     15.66890610	      8.98868074	    -21.11900879	     30.79047527	     31.76240620	     84.77049800	     -7.92806924	      3.38264113	      8.88498590	    -12.42398514	     44.56826154	     31.01513848	     88.19110238	    -13.40628782	      3.20286888
      0.15254237	      8.34666745	     -1.31938062	     88.31423557	      0.12029959	      0.82582248	      0.83911935	      5.47448724	      4.27831944	     -3.20871661	      9.74420459	      0.17006845	     33.15938887	     17.07956955	      0.00000000	      3.26780985	     -3.41502429	      6.98776614	      6.70720172	      0.11706275	     27.41563325	    -14.86917032	      0.00000000	      0.12578713	      0.97016064	      1.42137533	      0.23359928	      1.29031365	      1.51021128	      0.20665568	      2.35884858	      1.51021128	      0.14376211	      2.35884858	      1.24370341	      0.11680593	      1.97835158	      1.15486745	      0.07187477	      1.50277883	      1.06603150	      0.89848491	     10.97465121	      7.90526316	      0.00000000	      0.00000000	     25.22468296	      1.59421237	     15.70310199	      9.10439167	    -21.14408538	     30.75846309	     31.81385337	     84.79040538	     -7.94195807	      3.39063953	      9.17499039	    -12.25149252	     44.58810858	     31.26680319	     88.25313527	    -13.44927703	      3.07741676
